<svg width="40" height="40" viewBox="0 0 100 100" fill="none" xmlns="http://www.w3.org/2000/svg">
  <defs>
    <linearGradient id="g1" x1="0%" y1="0%" x2="100%" y2="100%">
      <stop offset="0%" stop-color="#f4a7b9"/>
      <stop offset="100%" stop-color="#a855a0"/>
    </linearGradient>
    <linearGradient id="g2" x1="0%" y1="0%" x2="100%" y2="100%">
      <stop offset="0%" stop-color="#f4a7b9" stop-opacity="0.4"/>
      <stop offset="100%" stop-color="#c9748f" stop-opacity="0.15"/>
    </linearGradient>
  </defs>

  <!-- Outer ring -->
  <circle cx="50" cy="50" r="47" fill="none" stroke="url(#g1)" stroke-width="0.8" opacity="0.3"/>

  <!-- Petal bloom -->
  <g transform="translate(50,50)">
    <ellipse cx="0" cy="-20" rx="7" ry="15" fill="url(#g2)" transform="rotate(0)"/>
    <ellipse cx="0" cy="-20" rx="7" ry="15" fill="url(#g2)" transform="rotate(60)"/>
    <ellipse cx="0" cy="-20" rx="7" ry="15" fill="url(#g2)" transform="rotate(120)"/>
    <ellipse cx="0" cy="-20" rx="7" ry="15" fill="url(#g2)" transform="rotate(180)"/>
    <ellipse cx="0" cy="-20" rx="7" ry="15" fill="url(#g2)" transform="rotate(240)"/>
    <ellipse cx="0" cy="-20" rx="7" ry="15" fill="url(#g2)" transform="rotate(300)"/>
  </g>

  <!-- N left vertical -->
  <path d="M28 22 C27 22 25 23 25 26 L25 74 C25 77 27 78 28 78 C29 78 31 77 31 74 L31 26 C31 23 29 22 28 22 Z" fill="url(#g1)"/>

  <!-- N right vertical -->
  <path d="M72 22 C71 22 69 23 69 26 L69 74 C69 77 71 78 72 78 C73 78 75 77 75 74 L75 26 C75 23 73 22 72 22 Z" fill="url(#g1)"/>

  <!-- N diagonal -->
  <path d="M28 30 C40 42 60 58 72 70" fill="none" stroke="url(#g1)" stroke-width="6" stroke-linecap="round"/>

  <!-- Center dot -->
  <circle cx="50" cy="50" r="3" fill="#f4a7b9" opacity="0.9"/>

  <!-- Accent dots -->
  <circle cx="50" cy="12" r="2.5" fill="#c9748f" opacity="0.6"/>
  <circle cx="50" cy="88" r="2.5" fill="#c9748f" opacity="0.6"/>
</svg>
